CodaCaption-ExtraBold.ufo
<glyph name="quotedbl" format="1">
  <advance width="1032"/>
  <unicode hex="0022"/>
  <outline>
    <contour>
      <point x="726" y="874" type="curve" smooth="yes"/>
      <point x="739" y="874"/>
      <point x="758" y="885"/>
      <point x="763" y="907" type="curve" smooth="yes"/>
      <point x="789" y="1018"/>
      <point x="874" y="1323"/>
      <point x="874" y="1421" type="curve" smooth="yes"/>
      <point x="874" y="1523"/>
      <point x="804" y="1575"/>
      <point x="724" y="1575" type="curve" smooth="yes"/>
      <point x="639" y="1575"/>
      <point x="580" y="1525"/>
      <point x="580" y="1416" type="curve" smooth="yes"/>
      <point x="580" y="1322"/>
      <point x="663" y="1022"/>
      <point x="689" y="910" type="curve" smooth="yes"/>
      <point x="695" y="887"/>
      <point x="713" y="874"/>
    </contour>
    <contour>
      <point x="308" y="874" type="curve" smooth="yes"/>
      <point x="321" y="874"/>
      <point x="340" y="885"/>
      <point x="345" y="907" type="curve" smooth="yes"/>
      <point x="371" y="1018"/>
      <point x="456" y="1323"/>
      <point x="456" y="1421" type="curve" smooth="yes"/>
      <point x="456" y="1523"/>
      <point x="386" y="1575"/>
      <point x="306" y="1575" type="curve" smooth="yes"/>
      <point x="221" y="1575"/>
      <point x="162" y="1525"/>
      <point x="162" y="1416" type="curve" smooth="yes"/>
      <point x="162" y="1322"/>
      <point x="245" y="1022"/>
      <point x="271" y="910" type="curve" smooth="yes"/>
      <point x="277" y="887"/>
      <point x="295" y="874"/>
    </contour>
  </outline>
</glyph>
<glyph name="dollar" format="1">
  <advance width="1313"/>
  <unicode hex="0024"/>
  <outline>
    <component base="S"/>
    <contour>
      <point x="712" y="1780" type="line"/>
      <point x="712" y="1465" type="line"/>
      <point x="829" y="1465" type="line"/>
      <point x="829" y="1780" type="line"/>
    </contour>
    <contour>
      <point x="712" y="86" type="line"/>
      <point x="712" y="-229" type="line"/>
      <point x="829" y="-229" type="line"/>
      <point x="829" y="86" type="line"/>
    </contour>
  </outline>
</glyph>
<glyph name="percent" format="1">
  <advance width="2682"/>
  <unicode hex="0025"/>
  <outline>
    <contour>
      <point x="1005" y="-22" type="line"/>
      <point x="1301" y="-22" type="line"/>
      <point x="1679" y="1607" type="line"/>
      <point x="1384" y="1607" type="line"/>
    </contour>
    <contour>
      <point x="2086" y="145" type="curve" smooth="yes"/>
      <point x="2323" y="145"/>
      <point x="2494" y="187"/>
      <point x="2494" y="458" type="curve" smooth="yes"/>
      <point x="2494" y="494"/>
      <point x="2494" y="732"/>
      <point x="2493" y="758" type="curve" smooth="yes"/>
      <point x="2488" y="1034"/>
      <point x="2331" y="1072"/>
      <point x="2085" y="1072" type="curve" smooth="yes"/>
      <point x="1848" y="1072"/>
      <point x="1679" y="1035"/>
      <point x="1679" y="759" type="curve" smooth="yes"/>
      <point x="1679" y="723"/>
      <point x="1679" y="485"/>
      <point x="1681" y="459" type="curve" smooth="yes"/>
      <point x="1685" y="181"/>
      <point x="1840" y="145"/>
    </contour>
    <contour>
      <point x="2080" y="326" type="curve" smooth="yes"/>
      <point x="2009" y="326"/>
      <point x="1977" y="332"/>
      <point x="1977" y="418" type="curve" smooth="yes"/>
      <point x="1977" y="435"/>
      <point x="1978" y="771"/>
      <point x="1978" y="795" type="curve" smooth="yes"/>
      <point x="1978" y="890"/>
      <point x="2010" y="891"/>
      <point x="2087" y="891" type="curve" smooth="yes"/>
      <point x="2168" y="891"/>
      <point x="2196" y="889"/>
      <point x="2196" y="793" type="curve" smooth="yes"/>
      <point x="2196" y="416" type="line" smooth="yes"/>
      <point x="2196" y="333"/>
      <point x="2164" y="326"/>
    </contour>
    <contour>
      <point x="596" y="604" type="curve" smooth="yes"/>
      <point x="835" y="604"/>
      <point x="1004" y="639"/>
      <point x="1004" y="916" type="curve" smooth="yes"/>
      <point x="1004" y="954"/>
      <point x="1004" y="1194"/>
      <point x="1003" y="1220" type="curve" smooth="yes"/>
      <point x="997" y="1492"/>
      <point x="838" y="1529"/>
      <point x="595" y="1529" type="curve" smooth="yes"/>
      <point x="360" y="1529"/>
      <point x="189" y="1493"/>
      <point x="189" y="1218" type="curve" smooth="yes"/>
      <point x="189" y="1181"/>
      <point x="189" y="942"/>
      <point x="191" y="916" type="curve" smooth="yes"/>
      <point x="195" y="633"/>
      <point x="349" y="604"/>
    </contour>
    <contour>
      <point x="591" y="784" type="curve" smooth="yes"/>
      <point x="520" y="784"/>
      <point x="487" y="790"/>
      <point x="487" y="875" type="curve" smooth="yes"/>
      <point x="487" y="1252" type="line" smooth="yes"/>
      <point x="487" y="1348"/>
      <point x="521" y="1348"/>
      <point x="598" y="1348" type="curve" smooth="yes"/>
      <point x="678" y="1348"/>
      <point x="706" y="1347"/>
      <point x="706" y="1251" type="curve" smooth="yes"/>
      <point x="706" y="874" type="line" smooth="yes"/>
      <point x="706" y="790"/>
      <point x="674" y="784"/>
    </contour>
  </outline>
</glyph>
<glyph name="comma" format="1">
  <advance width="810"/>
  <unicode hex="002C"/>
  <outline>
    <contour>
      <point x="276" y="-233" type="curve" smooth="yes"/>
      <point x="463" y="-233"/>
      <point x="585" y="-25"/>
      <point x="585" y="153" type="curve" smooth="yes"/>
      <point x="585" y="267"/>
      <point x="524" y="367"/>
      <point x="404" y="367" type="curve" smooth="yes"/>
      <point x="306" y="367"/>
      <point x="224" y="299"/>
      <point x="224" y="186" type="curve" smooth="yes"/>
      <point x="224" y="76"/>
      <point x="298" y="6"/>
      <point x="388" y="0" type="curve"/>
      <point x="385" y="-82"/>
      <point x="309" y="-137"/>
      <point x="225" y="-138" type="curve"/>
      <point x="225" y="-229" type="line"/>
      <point x="239" y="-232"/>
      <point x="256" y="-233"/>
    </contour>
  </outline>
</glyph>
<glyph name="hyphen" format="1">
  <advance width="1131"/>
  <unicode hex="002D"/>
  <outline>
    <contour>
      <point x="581" y="633" type="move" name="_mid"/>
    </contour>
    <contour>
      <point x="191" y="519" type="line"/>
      <point x="937" y="519" type="line"/>
      <point x="937" y="748" type="line"/>
      <point x="191" y="748" type="line"/>
    </contour>
  </outline>
</glyph>
<glyph name="period" format="1">
  <advance width="794"/>
  <unicode hex="002E"/>
  <outline>
    <contour>
      <point x="394" y="-36" type="curve" smooth="yes"/>
      <point x="483" y="-36"/>
      <point x="570" y="25"/>
      <point x="570" y="148" type="curve" smooth="yes"/>
      <point x="570" y="270"/>
      <point x="481" y="332"/>
      <point x="392" y="332" type="curve" smooth="yes"/>
      <point x="303" y="332"/>
      <point x="216" y="271"/>
      <point x="216" y="148" type="curve" smooth="yes"/>
      <point x="216" y="26"/>
      <point x="305" y="-36"/>
    </contour>
  </outline>
</glyph>
<glyph name="two" format="1">
  <advance width="1430"/>
  <unicode hex="0032"/>
  <outline>
    <contour>
      <point x="177" y="1" type="line"/>
      <point x="1234" y="1" type="line"/>
      <point x="1234" y="236" type="line"/>
      <point x="573" y="236" type="line"/>
      <point x="573" y="386"/>
      <point x="664" y="439"/>
      <point x="812" y="522" type="curve" smooth="yes"/>
      <point x="1058" y="657"/>
      <point x="1288" y="755"/>
      <point x="1288" y="1105" type="curve" smooth="yes"/>
      <point x="1288" y="1459"/>
      <point x="1115" y="1572"/>
      <point x="732" y="1572" type="curve" smooth="yes"/>
      <point x="387" y="1572"/>
      <point x="176" y="1481"/>
      <point x="176" y="1143" type="curve"/>
      <point x="177" y="1097" type="line"/>
      <point x="565" y="1082" type="line"/>
      <point x="569" y="1127"/>
      <point x="569" y="1322"/>
      <point x="587" y="1336" type="curve" smooth="yes"/>
      <point x="606" y="1350"/>
      <point x="689" y="1355"/>
      <point x="731" y="1355" type="curve" smooth="yes"/>
      <point x="781" y="1355"/>
      <point x="852" y="1347"/>
      <point x="865" y="1328" type="curve" smooth="yes"/>
      <point x="878" y="1310"/>
      <point x="885" y="1123"/>
      <point x="885" y="1083" type="curve" smooth="yes"/>
      <point x="885" y="907"/>
      <point x="772" y="874"/>
      <point x="610" y="780" type="curve"/>
      <point x="358" y="650"/>
      <point x="177" y="530"/>
      <point x="177" y="172" type="curve" smooth="yes"/>
    </contour>
  </outline>
</glyph>
<glyph name="three" format="1">
  <advance width="1430"/>
  <unicode hex="0033"/>
  <outline>
    <contour>
      <point x="707" y="-21" type="curve"/>
      <point x="1088" y="-21"/>
      <point x="1292" y="94"/>
      <point x="1292" y="433" type="curve" smooth="yes"/>
      <point x="1292" y="666"/>
      <point x="1216" y="758"/>
      <point x="1102" y="799" type="curve"/>
      <point x="1204" y="830"/>
      <point x="1287" y="893"/>
      <point x="1287" y="1151" type="curve" smooth="yes"/>
      <point x="1287" y="1450"/>
      <point x="1101" y="1572"/>
      <point x="720" y="1572" type="curve" smooth="yes"/>
      <point x="314" y="1572"/>
      <point x="148" y="1463"/>
      <point x="144" y="1149" type="curve"/>
      <point x="144" y="1092" type="line"/>
      <point x="536" y="1076" type="line"/>
      <point x="536" y="1127"/>
      <point x="540" y="1331"/>
      <point x="547" y="1338" type="curve" smooth="yes"/>
      <point x="562" y="1354"/>
      <point x="661" y="1357"/>
      <point x="719" y="1357" type="curve" smooth="yes"/>
      <point x="822" y="1357"/>
      <point x="881" y="1337"/>
      <point x="881" y="1261" type="curve" smooth="yes"/>
      <point x="881" y="1174"/>
      <point x="880" y="893"/>
      <point x="858" y="893" type="curve" smooth="yes"/>
      <point x="557" y="893" type="line"/>
      <point x="560" y="703" type="line"/>
      <point x="860" y="702" type="line" smooth="yes"/>
      <point x="880" y="702"/>
      <point x="884" y="414"/>
      <point x="884" y="320" type="curve" smooth="yes"/>
      <point x="884" y="220"/>
      <point x="827" y="196"/>
      <point x="707" y="196" type="curve" smooth="yes"/>
      <point x="646" y="196"/>
      <point x="554" y="198"/>
      <point x="540" y="217" type="curve" smooth="yes"/>
      <point x="529.714" y="229"/>
      <point x="528.98" y="400.429"/>
      <point x="528.98" y="473.723" type="curve" smooth="yes"/>
      <point x="528.98" y="485.939"/>
      <point x="529" y="495.429"/>
      <point x="529" y="501" type="curve"/>
      <point x="139" y="479" type="line"/>
      <point x="139" y="409" type="line" smooth="yes"/>
      <point x="138.988" y="407.132"/>
      <point x="138.982" y="405.272"/>
      <point x="138.982" y="403.418" type="curve" smooth="yes"/>
      <point x="138.982" y="91.6564"/>
      <point x="306.382" y="-21"/>
    </contour>
  </outline>
</glyph>
<glyph name="four" format="1">
  <advance width="1430"/>
  <unicode hex="0034"/>
  <outline>
    <contour>
      <point x="493" y="1551" type="line"/>
      <point x="127" y="607" type="line"/>
      <point x="127" y="303" type="line"/>
      <point x="873" y="303" type="line"/>
      <point x="873" y="0" type="line"/>
      <point x="1248" y="0" type="line"/>
      <point x="1248" y="971" type="line"/>
      <point x="873" y="971" type="line"/>
      <point x="873" y="569" type="line"/>
      <point x="542" y="569" type="line"/>
      <point x="662.862" y="897.471"/>
      <point x="786.146" y="1223.52"/>
      <point x="908" y="1551" type="curve"/>
    </contour>
  </outline>
</glyph>
<glyph name="question" format="1">
  <advance width="983"/>
  <unicode hex="003F"/>
  <outline>
    <contour>
      <point x="405" y="-36" type="curve" smooth="yes"/>
      <point x="493" y="-36"/>
      <point x="581" y="25"/>
      <point x="581" y="148" type="curve" smooth="yes"/>
      <point x="581" y="270"/>
      <point x="491" y="332"/>
      <point x="402" y="332" type="curve" smooth="yes"/>
      <point x="314" y="332"/>
      <point x="226" y="271"/>
      <point x="226" y="148" type="curve" smooth="yes"/>
      <point x="226" y="26"/>
      <point x="316" y="-36"/>
    </contour>
    <contour>
      <point x="406" y="481" type="curve" smooth="yes"/>
      <point x="438" y="481"/>
      <point x="461" y="497"/>
      <point x="464" y="532" type="curve" smooth="yes"/>
      <point x="474" y="631"/>
      <point x="524" y="715"/>
      <point x="593" y="800" type="curve" smooth="yes"/>
      <point x="719" y="961"/>
      <point x="877" y="1075"/>
      <point x="877" y="1259" type="curve" smooth="yes"/>
      <point x="877" y="1450"/>
      <point x="761" y="1586"/>
      <point x="466" y="1586" type="curve" smooth="yes"/>
      <point x="377" y="1586"/>
      <point x="272" y="1564"/>
      <point x="144" y="1518" type="curve"/>
      <point x="174" y="1248" type="line"/>
      <point x="269" y="1280"/>
      <point x="334" y="1293"/>
      <point x="382" y="1293" type="curve" smooth="yes"/>
      <point x="491" y="1293"/>
      <point x="540" y="1232"/>
      <point x="540" y="1150" type="curve" smooth="yes"/>
      <point x="540" y="1075"/>
      <point x="502" y="995"/>
      <point x="455" y="903" type="curve"/>
      <point x="390" y="789"/>
      <point x="349" y="690"/>
      <point x="349" y="540" type="curve" smooth="yes"/>
      <point x="349" y="506"/>
      <point x="367" y="481"/>
    </contour>
  </outline>
</glyph>
<glyph name="at" format="1">
  <advance width="2222"/>
  <unicode hex="0040"/>
  <outline>
    <contour>
      <point x="1144" y="293" type="curve" smooth="yes"/>
      <point x="1047" y="293"/>
      <point x="1008" y="311"/>
      <point x="1008" y="360" type="curve" smooth="yes"/>
      <point x="1008" y="449"/>
      <point x="1027" y="638"/>
      <point x="1095" y="638" type="curve" smooth="yes"/>
      <point x="1268" y="639" type="line"/>
      <point x="1267" y="386" type="line" smooth="yes"/>
      <point x="1267" y="339"/>
      <point x="1210" y="293"/>
    </contour>
    <contour>
      <point x="673.857" y="431.66" type="curve" smooth="yes"/>
      <point x="673.857" y="202.088"/>
      <point x="783.956" y="120"/>
      <point x="1025" y="120" type="curve" smooth="yes"/>
      <point x="1190" y="120"/>
      <point x="1261" y="181"/>
      <point x="1306" y="263" type="curve"/>
      <point x="1348" y="171"/>
      <point x="1444" y="117"/>
      <point x="1577" y="116" type="curve" smooth="yes"/>
      <point x="2002" y="116"/>
      <point x="2075" y="361"/>
      <point x="2075" y="786" type="curve" smooth="yes"/>
      <point x="2075" y="1419"/>
      <point x="1828" y="1650"/>
      <point x="1150" y="1650" type="curve" smooth="yes"/>
      <point x="481" y="1650"/>
      <point x="167" y="1392"/>
      <point x="167" y="663" type="curve" smooth="yes"/>
      <point x="167" y="-107"/>
      <point x="547" y="-326"/>
      <point x="1156" y="-326" type="curve" smooth="yes"/>
      <point x="1376" y="-326"/>
      <point x="1606" y="-283"/>
      <point x="1755" y="-204" type="curve"/>
      <point x="1698" y="-36" type="line"/>
      <point x="1507" y="-113"/>
      <point x="1300" y="-139"/>
      <point x="1192" y="-139" type="curve" smooth="yes"/>
      <point x="598" y="-139"/>
      <point x="431" y="88"/>
      <point x="431" y="678" type="curve" smooth="yes"/>
      <point x="431" y="1191"/>
      <point x="592" y="1449"/>
      <point x="1160" y="1449" type="curve" smooth="yes"/>
      <point x="1647" y="1449"/>
      <point x="1805" y="1278"/>
      <point x="1805" y="763" type="curve" smooth="yes"/>
      <point x="1805" y="628"/>
      <point x="1793" y="324"/>
      <point x="1767" y="306" type="curve" smooth="yes"/>
      <point x="1751" y="296"/>
      <point x="1625" y="295"/>
      <point x="1586" y="295" type="curve"/>
      <point x="1586" y="869" type="line" smooth="yes"/>
      <point x="1586" y="1128"/>
      <point x="1472" y="1225"/>
      <point x="1163" y="1225" type="curve" smooth="yes"/>
      <point x="896.491" y="1225"/>
      <point x="718.983" y="1190.39"/>
      <point x="718.983" y="968.738" type="curve" smooth="yes"/>
      <point x="718.983" y="954.628"/>
      <point x="720.533" y="903.179"/>
      <point x="724" y="887" type="curve"/>
      <point x="1043" y="887" type="line"/>
      <point x="1041.96" y="897.893"/>
      <point x="1040.12" y="931.119"/>
      <point x="1040.12" y="962.392" type="curve" smooth="yes"/>
      <point x="1040.12" y="991.408"/>
      <point x="1041.71" y="1018.74"/>
      <point x="1047" y="1025" type="curve" smooth="yes"/>
      <point x="1059" y="1040"/>
      <point x="1107" y="1042"/>
      <point x="1156" y="1042" type="curve" smooth="yes"/>
      <point x="1230" y="1042"/>
      <point x="1268" y="1035"/>
      <point x="1268" y="983" type="curve" smooth="yes"/>
      <point x="1268" y="755" type="line"/>
      <point x="1205" y="766"/>
      <point x="1046" y="769"/>
      <point x="1003" y="769" type="curve" smooth="yes"/>
      <point x="755.041" y="767.048"/>
      <point x="673.857" y="630.722"/>
    </contour>
  </outline>
</glyph>
<glyph name="D" format="1">
  <advance width="1609"/>
  <unicode hex="0044"/>
  <outline>
    <contour>
      <point x="425" y="789" type="move" name="mid"/>
    </contour>
    <contour>
      <point x="812" y="0" type="move" name="bot"/>
    </contour>
    <contour>
      <point x="812" y="1551" type="move" name="top"/>
    </contour>
    <contour>
      <point x="1018" y="917" type="curve" smooth="yes"/>
      <point x="1018" y="574" type="line" smooth="yes"/>
      <point x="1018" y="384"/>
      <point x="989" y="201"/>
      <point x="824" y="201" type="curve" smooth="yes"/>
      <point x="622" y="201" type="line"/>
      <point x="622" y="1349" type="line"/>
      <point x="811" y="1349" type="line" smooth="yes"/>
      <point x="1018" y="1349"/>
      <point x="1018" y="1079"/>
    </contour>
    <contour>
      <point x="186" y="1551" type="line"/>
      <point x="186" y="0" type="line"/>
      <point x="777" y="0" type="line" smooth="yes"/>
      <point x="1230" y="0"/>
      <point x="1449" y="26"/>
      <point x="1452" y="516" type="curve"/>
      <point x="1453" y="1057" type="line" smooth="yes"/>
      <point x="1453" y="1471"/>
      <point x="1229" y="1551"/>
      <point x="841" y="1551" type="curve" smooth="yes"/>
    </contour>
  </outline>
</glyph>
<glyph name="M" format="1">
  <advance width="1918"/>
  <unicode hex="004D"/>
  <outline>
    <contour>
      <point x="956" y="0" type="move" name="bot"/>
    </contour>
    <contour>
      <point x="956" y="1551" type="move" name="top"/>
    </contour>
    <contour>
      <point x="1211" y="1551" type="line"/>
      <point x="960" y="527" type="line"/>
      <point x="952" y="527" type="line"/>
      <point x="698" y="1551" type="line"/>
      <point x="217" y="1551" type="line"/>
      <point x="127" y="0" type="line"/>
      <point x="473" y="0" type="line"/>
      <point x="534" y="1052" type="line"/>
      <point x="543" y="1052" type="line"/>
      <point x="809" y="-1" type="line"/>
      <point x="1105" y="-1" type="line"/>
      <point x="1368" y="1052" type="line"/>
      <point x="1379" y="1052" type="line"/>
      <point x="1441" y="0" type="line"/>
      <point x="1783" y="0" type="line"/>
      <point x="1692" y="1551" type="line"/>
    </contour>
  </outline>
</glyph>
<glyph name="W" format="1">
  <advance width="1997"/>
  <unicode hex="0057"/>
  <outline>
    <contour>
      <point x="996" y="0" type="move" name="bot"/>
    </contour>
    <contour>
      <point x="996" y="1551" type="move" name="top"/>
    </contour>
    <contour>
      <point x="1556" y="1551" type="line"/>
      <point x="1400" y="492" type="line"/>
      <point x="1386" y="491" type="line"/>
      <point x="1186" y="1551" type="line"/>
      <point x="824" y="1551" type="line"/>
      <point x="624" y="488" type="line"/>
      <point x="613" y="488" type="line"/>
      <point x="473" y="1551" type="line"/>
      <point x="60" y="1551" type="line"/>
      <point x="315" y="0" type="line"/>
      <point x="767" y="0" type="line"/>
      <point x="986" y="1026" type="line"/>
      <point x="998" y="1026" type="line"/>
      <point x="1207" y="0" type="line"/>
      <point x="1670" y="0" type="line"/>
      <point x="1932" y="1551" type="line"/>
    </contour>
  </outline>
</glyph>
<glyph name="Y" format="1">
  <advance width="1417"/>
  <unicode hex="0059"/>
  <outline>
    <contour>
      <point x="714" y="0" type="move" name="bot"/>
    </contour>
    <contour>
      <point x="714" y="1551" type="move" name="top"/>
    </contour>
    <contour>
      <point x="971" y="1551" type="line"/>
      <point x="712" y="860" type="line"/>
      <point x="706" y="860" type="line"/>
      <point x="454" y="1551" type="line"/>
      <point x="41" y="1551" type="line"/>
      <point x="489" y="530" type="line"/>
      <point x="489" y="0" type="line"/>
      <point x="925" y="0" type="line"/>
      <point x="925" y="524" type="line"/>
      <point x="1379" y="1551" type="line"/>
    </contour>
  </outline>
</glyph>
<glyph name="asciicircum" format="1">
  <advance width="1208"/>
  <unicode hex="005E"/>
  <outline>
    <contour>
      <point x="603" y="1540" type="curve" smooth="yes"/>
      <point x="527" y="1540"/>
      <point x="448" y="1515"/>
      <point x="410" y="1434" type="curve" smooth="yes"/>
      <point x="55" y="681" type="line" smooth="yes"/>
      <point x="47.9782" y="665.876"/>
      <point x="44.8403" y="651.117"/>
      <point x="44.8403" y="637.19" type="curve" smooth="yes"/>
      <point x="44.8403" y="582.049"/>
      <point x="94.0317" y="539.959"/>
      <point x="146.106" y="539.959" type="curve" smooth="yes"/>
      <point x="178.277" y="539.959"/>
      <point x="211.548" y="556.024"/>
      <point x="235" y="595" type="curve" smooth="yes"/>
      <point x="603" y="1214" type="line"/>
      <point x="971" y="595" type="line" smooth="yes"/>
      <point x="994.452" y="556.024"/>
      <point x="1027.72" y="539.959"/>
      <point x="1059.89" y="539.959" type="curve" smooth="yes"/>
      <point x="1111.97" y="539.959"/>
      <point x="1161.16" y="582.049"/>
      <point x="1161.16" y="637.19" type="curve" smooth="yes"/>
      <point x="1161.16" y="651.117"/>
      <point x="1158.02" y="665.876"/>
      <point x="1151" y="681" type="curve" smooth="yes"/>
      <point x="796" y="1434" type="line" smooth="yes"/>
      <point x="758" y="1515"/>
      <point x="679" y="1540"/>
    </contour>
  </outline>
</glyph>
<glyph name="grave" format="1">
  <advance width="1032"/>
  <unicode hex="0060"/>
  <outline>
    <contour>
      <point x="682" y="1215" type="move" name="_top"/>
    </contour>
    <contour>
      <point x="879.065" y="1392.99" type="curve" smooth="yes"/>
      <point x="901.473" y="1392.99"/>
      <point x="921.233" y="1406.52"/>
      <point x="921.233" y="1427.66" type="curve" smooth="yes"/>
      <point x="921.233" y="1439.44"/>
      <point x="915.069" y="1453.01"/>
      <point x="901" y="1466" type="curve" smooth="yes"/>
      <point x="806" y="1552"/>
      <point x="576" y="1783"/>
      <point x="501" y="1830" type="curve" smooth="yes"/>
      <point x="465" y="1853"/>
      <point x="429" y="1866"/>
      <point x="394" y="1866" type="curve" smooth="yes"/>
      <point x="306" y="1866"/>
      <point x="249" y="1797"/>
      <point x="249" y="1721" type="curve" smooth="yes"/>
      <point x="249" y="1667"/>
      <point x="279" y="1608"/>
      <point x="346" y="1572" type="curve" smooth="yes"/>
      <point x="417" y="1532"/>
      <point x="739" y="1433"/>
      <point x="858" y="1397" type="curve" smooth="yes"/>
      <point x="865.353" y="1394.2"/>
      <point x="872.46" y="1392.99"/>
    </contour>
  </outline>
</glyph>
<glyph name="b" format="1">
  <advance width="1454"/>
  <unicode hex="0062"/>
  <outline>
    <contour>
      <point x="724" y="1215" type="move" name="top"/>
    </contour>
    <contour>
      <point x="740" y="165" type="curve" smooth="yes"/>
      <point x="661" y="165"/>
      <point x="583" y="182"/>
      <point x="583" y="228" type="curve" smooth="yes"/>
      <point x="583" y="961" type="line" smooth="yes"/>
      <point x="583" y="1043"/>
      <point x="648" y="1052"/>
      <point x="739" y="1052" type="curve" smooth="yes"/>
      <point x="843" y="1052"/>
      <point x="895" y="1035"/>
      <point x="895" y="956" type="curve" smooth="yes"/>
      <point x="895" y="260" type="line" smooth="yes"/>
      <point x="895" y="172"/>
      <point x="829" y="165"/>
    </contour>
    <contour>
      <point x="169" y="1591" type="line"/>
      <point x="169" y="0" type="line"/>
      <point x="546" y="0" type="line"/>
      <point x="575" y="124" type="line"/>
      <point x="625" y="30"/>
      <point x="753" y="-21"/>
      <point x="910" y="-21" type="curve" smooth="yes"/>
      <point x="1218" y="-21"/>
      <point x="1316" y="117"/>
      <point x="1318" y="431" type="curve"/>
      <point x="1318" y="802" type="line" smooth="yes"/>
      <point x="1318.02" y="804.769"/>
      <point x="1318.03" y="807.526"/>
      <point x="1318.03" y="810.27" type="curve" smooth="yes"/>
      <point x="1318.03" y="1088.91"/>
      <point x="1216.93" y="1236"/>
      <point x="905" y="1236" type="curve" smooth="yes"/>
      <point x="747" y="1236"/>
      <point x="640" y="1198"/>
      <point x="583" y="1110" type="curve"/>
      <point x="583" y="1591" type="line"/>
    </contour>
  </outline>
</glyph>
<glyph name="e" format="1">
  <advance width="1403"/>
  <unicode hex="0065"/>
  <outline>
    <contour>
      <point x="698" y="0" type="move" name="bot"/>
    </contour>
    <contour>
      <point x="803" y="0" type="move" name="ogonek"/>
    </contour>
    <contour>
      <point x="690" y="1215" type="move" name="top"/>
    </contour>
    <contour>
      <point x="551" y="726" type="line"/>
      <point x="551" y="731.4"/>
      <point x="550.96" y="744.96"/>
      <point x="550.96" y="763.432" type="curve" smooth="yes"/>
      <point x="550.96" y="837.32"/>
      <point x="551.6" y="989.8"/>
      <point x="558" y="1013" type="curve" smooth="yes"/>
      <point x="566" y="1045"/>
      <point x="624" y="1053"/>
      <point x="707" y="1053" type="curve" smooth="yes"/>
      <point x="778" y="1053"/>
      <point x="850" y="1044"/>
      <point x="852" y="1010" type="curve" smooth="yes"/>
      <point x="855" y="978"/>
      <point x="856" y="755"/>
      <point x="856" y="726" type="curve"/>
    </contour>
    <contour>
      <point x="711" y="-21" type="curve" smooth="yes"/>
      <point x="1080" y="-21"/>
      <point x="1259" y="51"/>
      <point x="1261" y="317" type="curve" smooth="yes"/>
      <point x="1261" y="336"/>
      <point x="1260" y="393"/>
      <point x="1257" y="415" type="curve"/>
      <point x="862" y="418" type="line"/>
      <point x="857" y="202" type="line"/>
      <point x="855" y="178"/>
      <point x="786" y="165"/>
      <point x="714" y="165" type="curve" smooth="yes"/>
      <point x="630" y="165"/>
      <point x="556" y="173"/>
      <point x="553" y="211" type="curve" smooth="yes"/>
      <point x="551" y="254"/>
      <point x="551" y="534"/>
      <point x="550" y="581" type="curve"/>
      <point x="1268" y="581" type="line"/>
      <point x="1270" y="818" type="line"/>
      <point x="1268" y="1191"/>
      <point x="1036" y="1236"/>
      <point x="707" y="1236" type="curve" smooth="yes"/>
      <point x="369" y="1236"/>
      <point x="136" y="1186"/>
      <point x="136" y="802" type="curve" smooth="yes"/>
      <point x="136" y="396" type="line" smooth="yes"/>
      <point x="136" y="23"/>
      <point x="376" y="-21"/>
    </contour>
  </outline>
</glyph>
<glyph name="f" format="1">
  <advance width="1018"/>
  <unicode hex="0066"/>
  <outline>
    <contour>
      <point x="510" y="1328" type="move" name="top"/>
    </contour>
    <contour>
      <point x="270" y="1215" type="curve"/>
      <point x="96" y="1215" type="line"/>
      <point x="96" y="1050" type="line"/>
      <point x="270" y="1050" type="line"/>
      <point x="270" y="0" type="line"/>
      <point x="684" y="0" type="line"/>
      <point x="684" y="1050" type="line"/>
      <point x="949" y="1050" type="line"/>
      <point x="949" y="1215" type="line"/>
      <point x="684" y="1215" type="line"/>
      <point x="684" y="1370" type="line" smooth="yes"/>
      <point x="684" y="1422"/>
      <point x="739" y="1425"/>
      <point x="768" y="1425" type="curve" smooth="yes"/>
      <point x="791" y="1425"/>
      <point x="931" y="1425"/>
      <point x="947" y="1424" type="curve"/>
      <point x="947" y="1603" type="line"/>
      <point x="852" y="1629"/>
      <point x="755" y="1638"/>
      <point x="663" y="1638" type="curve" smooth="yes"/>
      <point x="379" y="1638"/>
      <point x="270" y="1532"/>
    </contour>
  </outline>
</glyph>
<glyph name="g" format="1">
  <advance width="1428"/>
  <unicode hex="0067"/>
  <outline>
    <contour>
      <point x="712" y="0" type="move" name="bot"/>
    </contour>
    <contour>
      <point x="704" y="1215" type="move" name="top"/>
    </contour>
    <contour>
      <point x="712" y="248" type="curve" smooth="yes"/>
      <point x="579" y="248"/>
      <point x="553" y="293"/>
      <point x="552" y="346" type="curve" smooth="yes"/>
      <point x="551" y="393"/>
      <point x="551" y="895"/>
      <point x="551" y="950" type="curve" smooth="yes"/>
      <point x="551" y="1041"/>
      <point x="611" y="1053"/>
      <point x="703" y="1053" type="curve" smooth="yes"/>
      <point x="786" y="1053"/>
      <point x="859" y="1036"/>
      <point x="859" y="990" type="curve" smooth="yes"/>
      <point x="858" y="285" type="line" smooth="yes"/>
      <point x="858" y="255"/>
      <point x="756" y="248"/>
    </contour>
    <contour>
      <point x="138" y="795" type="curve" smooth="yes"/>
      <point x="138" y="492" type="line" smooth="yes"/>
      <point x="138" y="189"/>
      <point x="230" y="60"/>
      <point x="556" y="60" type="curve" smooth="yes"/>
      <point x="704" y="60"/>
      <point x="814" y="97"/>
      <point x="865" y="182" type="curve"/>
      <point x="865" y="-76" type="line"/>
      <point x="839" y="-133"/>
      <point x="778" y="-165"/>
      <point x="616" y="-165" type="curve" smooth="yes"/>
      <point x="499" y="-165"/>
      <point x="357" y="-150"/>
      <point x="278" y="-128" type="curve"/>
      <point x="240" y="-354" type="line"/>
      <point x="344" y="-386"/>
      <point x="502" y="-408"/>
      <point x="672" y="-408" type="curve" smooth="yes"/>
      <point x="1114" y="-408"/>
      <point x="1272" y="-248"/>
      <point x="1272" y="153" type="curve" smooth="yes"/>
      <point x="1273" y="1214" type="line"/>
      <point x="901" y="1214" type="line"/>
      <point x="872" y="1098" type="line"/>
      <point x="813" y="1195"/>
      <point x="701" y="1235"/>
      <point x="539" y="1236" type="curve" smooth="yes"/>
      <point x="238" y="1236"/>
      <point x="138" y="1112"/>
    </contour>
  </outline>
</glyph>
<glyph name="h" format="1">
  <advance width="1452"/>
  <unicode hex="0068"/>
  <outline>
    <contour>
      <point x="603" y="1306" type="move" name="mid"/>
    </contour>
    <contour>
      <point x="723" y="608" type="move" name="center"/>
    </contour>
    <contour>
      <point x="724" y="0" type="move" name="bot"/>
    </contour>
    <contour>
      <point x="916" y="1447" type="move" name="top"/>
    </contour>
    <contour>
      <point x="169" y="1591" type="line"/>
      <point x="169" y="0" type="line"/>
      <point x="583" y="0" type="line"/>
      <point x="583" y="1008" type="line" smooth="yes"/>
      <point x="583" y="1039"/>
      <point x="687" y="1052"/>
      <point x="729" y="1052" type="curve" smooth="yes"/>
      <point x="831" y="1052"/>
      <point x="882" y="1039"/>
      <point x="882" y="916" type="curve" smooth="yes"/>
      <point x="882" y="0" type="line"/>
      <point x="1295" y="0" type="line"/>
      <point x="1296" y="853" type="line" smooth="yes"/>
      <point x="1296" y="1102"/>
      <point x="1199" y="1236"/>
      <point x="894" y="1236" type="curve" smooth="yes"/>
      <point x="755" y="1236"/>
      <point x="636" y="1200"/>
      <point x="583" y="1123" type="curve"/>
      <point x="583" y="1591" type="line"/>
    </contour>
  </outline>
</glyph>
<glyph name="i" format="1">
  <advance width="738"/>
  <unicode hex="0069"/>
  <outline>
    <component base="dotaccent" xOffset="-95"/>
    <component base="dotlessi" xOffset="-17"/>
    <contour>
      <point x="179" y="0" type="move" name="ogonek"/>
    </contour>
  </outline>
</glyph>
<glyph name="l" format="1">
  <advance width="774"/>
  <unicode hex="006C"/>
  <outline>
    <contour>
      <point x="391" y="0" type="move" name="bottom"/>
    </contour>
    <contour>
      <point x="397" y="1035" type="move" name="mid"/>
    </contour>
    <contour>
      <point x="391" y="0" type="move" name="bot"/>
    </contour>
    <contour>
      <point x="464" y="1215" type="move" name="caron.alt"/>
    </contour>
    <contour>
      <point x="404" y="1551" type="move" name="top"/>
    </contour>
    <contour>
      <point x="190" y="1591" type="line"/>
      <point x="190" y="0" type="line"/>
      <point x="604" y="0" type="line"/>
      <point x="604" y="1591" type="line"/>
    </contour>
  </outline>
</glyph>
<glyph name="m" format="1">
  <advance width="2101"/>
  <unicode hex="006D"/>
  <outline>
    <contour>
      <point x="1054" y="0" type="move" name="bot"/>
    </contour>
    <contour>
      <point x="1054" y="1215" type="move" name="top"/>
    </contour>
    <contour>
      <point x="1220" y="1099" type="curve"/>
      <point x="1163" y="1194"/>
      <point x="1059" y="1236"/>
      <point x="906" y="1236" type="curve" smooth="yes"/>
      <point x="759" y="1236"/>
      <point x="632" y="1198"/>
      <point x="571" y="1099" type="curve"/>
      <point x="541" y="1215" type="line"/>
      <point x="169" y="1215" type="line"/>
      <point x="169" y="0" type="line"/>
      <point x="578" y="0" type="line"/>
      <point x="578" y="1018" type="line" smooth="yes"/>
      <point x="578" y="1048"/>
      <point x="679" y="1057"/>
      <point x="716" y="1057" type="curve" smooth="yes"/>
      <point x="807" y="1057"/>
      <point x="858" y="1034"/>
      <point x="858" y="948" type="curve" smooth="yes"/>
      <point x="858" y="0" type="line"/>
      <point x="1264" y="0" type="line"/>
      <point x="1263" y="910" type="line"/>
      <point x="1263" y="1015" type="line"/>
      <point x="1273" y="1043"/>
      <point x="1349" y="1057"/>
      <point x="1414" y="1057" type="curve" smooth="yes"/>
      <point x="1490" y="1057"/>
      <point x="1540" y="1018"/>
      <point x="1540" y="921" type="curve" smooth="yes"/>
      <point x="1540" y="0" type="line"/>
      <point x="1950" y="0" type="line"/>
      <point x="1950" y="830" type="line" smooth="yes"/>
      <point x="1950" y="1128"/>
      <point x="1836" y="1236"/>
      <point x="1554" y="1236" type="curve" smooth="yes"/>
      <point x="1395" y="1236"/>
      <point x="1278" y="1194"/>
    </contour>
  </outline>
</glyph>
<glyph name="s" format="1">
  <advance width="1286"/>
  <unicode hex="0073"/>
  <outline>
    <contour>
      <point x="639" y="0" type="move" name="bot"/>
    </contour>
    <contour>
      <point x="633" y="1215" type="move" name="top"/>
    </contour>
    <contour>
      <point x="656" y="-21" type="curve" smooth="yes"/>
      <point x="1037" y="-21"/>
      <point x="1188" y="22"/>
      <point x="1188" y="369" type="curve" smooth="yes"/>
      <point x="1188" y="633"/>
      <point x="1098" y="692"/>
      <point x="841" y="730" type="curve"/>
      <point x="678" y="759" type="line"/>
      <point x="518" y="783"/>
      <point x="512" y="785"/>
      <point x="512" y="878" type="curve" smooth="yes"/>
      <point x="512" y="903"/>
      <point x="513" y="1004"/>
      <point x="525" y="1014" type="curve" smooth="yes"/>
      <point x="537" y="1024"/>
      <point x="602" y="1028"/>
      <point x="647" y="1028" type="curve" smooth="yes"/>
      <point x="692" y="1028"/>
      <point x="759" y="1027"/>
      <point x="773" y="1018" type="curve" smooth="yes"/>
      <point x="787" y="1010"/>
      <point x="791" y="914"/>
      <point x="793" y="884" type="curve"/>
      <point x="1151" y="910" type="line"/>
      <point x="1151" y="1213"/>
      <point x="983" y="1236"/>
      <point x="658" y="1236" type="curve" smooth="yes"/>
      <point x="290" y="1236"/>
      <point x="117" y="1182"/>
      <point x="117" y="869" type="curve" smooth="yes"/>
      <point x="117" y="596"/>
      <point x="222" y="546"/>
      <point x="467" y="512" type="curve"/>
      <point x="633" y="485" type="line"/>
      <point x="768" y="466"/>
      <point x="793" y="465"/>
      <point x="793" y="359" type="curve" smooth="yes"/>
      <point x="793" y="332"/>
      <point x="792" y="221"/>
      <point x="781" y="206" type="curve" smooth="yes"/>
      <point x="769" y="192"/>
      <point x="704" y="184"/>
      <point x="659" y="184" type="curve" smooth="yes"/>
      <point x="604" y="184"/>
      <point x="533" y="185"/>
      <point x="519" y="196" type="curve" smooth="yes"/>
      <point x="504" y="207"/>
      <point x="503" y="326"/>
      <point x="499" y="367" type="curve"/>
      <point x="133" y="337" type="line"/>
      <point x="133" y="-1"/>
      <point x="315" y="-21"/>
    </contour>
  </outline>
</glyph>
<glyph name="u" format="1">
  <advance width="1440"/>
  <unicode hex="0075"/>
  <outline>
    <contour>
      <point x="1040" y="0" type="move" name="ogonek"/>
    </contour>
    <contour>
      <point x="712" y="1215" type="move" name="top"/>
    </contour>
    <contour>
      <point x="856" y="1215" type="line"/>
      <point x="856" y="274" type="line" smooth="yes"/>
      <point x="856" y="212"/>
      <point x="821" y="162"/>
      <point x="707" y="162" type="curve" smooth="yes"/>
      <point x="599" y="162"/>
      <point x="561" y="187"/>
      <point x="561" y="304" type="curve" smooth="yes"/>
      <point x="561" y="1215" type="line"/>
      <point x="147" y="1215" type="line"/>
      <point x="147" y="395" type="line" smooth="yes"/>
      <point x="147" y="106"/>
      <point x="257" y="-21"/>
      <point x="535" y="-21" type="curve" smooth="yes"/>
      <point x="688" y="-21"/>
      <point x="820" y="29"/>
      <point x="870" y="124" type="curve"/>
      <point x="899" y="0" type="line"/>
      <point x="1271" y="0" type="line"/>
      <point x="1271" y="1215" type="line"/>
    </contour>
  </outline>
</glyph>
<glyph name="w" format="1">
  <advance width="1842"/>
  <unicode hex="0077"/>
  <outline>
    <contour>
      <point x="923" y="0" type="move" name="bot"/>
    </contour>
    <contour>
      <point x="919" y="1215" type="move" name="top"/>
    </contour>
    <contour>
      <point x="288" y="0" type="line"/>
      <point x="773" y="0" type="line"/>
      <point x="917" y="825" type="line"/>
      <point x="923" y="825" type="line"/>
      <point x="1072" y="0" type="line"/>
      <point x="1551" y="0" type="line"/>
      <point x="1784" y="1215" type="line"/>
      <point x="1420" y="1215" type="line"/>
      <point x="1282" y="314" type="line"/>
      <point x="1273" y="314" type="line"/>
      <point x="1118" y="1215" type="line"/>
      <point x="727" y="1215" type="line"/>
      <point x="572" y="314" type="line"/>
      <point x="563" y="314" type="line"/>
      <point x="418" y="1215" type="line"/>
      <point x="52" y="1215" type="line"/>
    </contour>
  </outline>
</glyph>
<glyph name="x" format="1">
  <advance width="1296"/>
  <unicode hex="0078"/>
  <outline>
    <contour>
      <point x="813" y="0" type="line"/>
      <point x="1228" y="0" type="line"/>
      <point x="858" y="614" type="line"/>
      <point x="1219" y="1215" type="line"/>
      <point x="869" y="1215" type="line"/>
      <point x="686" y="898" type="line"/>
      <point x="495" y="1215" type="line"/>
      <point x="77" y="1215" type="line"/>
      <point x="438" y="620" type="line"/>
      <point x="68" y="0" type="line"/>
      <point x="422" y="0" type="line"/>
      <point x="616" y="326" type="line"/>
    </contour>
  </outline>
</glyph>
<glyph name="copyright" format="1">
  <advance width="2017"/>
  <unicode hex="00A9"/>
  <outline>
    <contour>
      <point x="1009" y="-99" type="curve" smooth="yes"/>
      <point x="1450" y="-99"/>
      <point x="1847" y="34"/>
      <point x="1847" y="568" type="curve" smooth="yes"/>
      <point x="1847" y="1025" type="line" smooth="yes"/>
      <point x="1847" y="1551"/>
      <point x="1487" y="1698"/>
      <point x="1005" y="1698" type="curve" smooth="yes"/>
      <point x="564" y="1698"/>
      <point x="163" y="1570"/>
      <point x="163" y="1026" type="curve" smooth="yes"/>
      <point x="163" y="568" type="line" smooth="yes"/>
      <point x="163" y="52"/>
      <point x="523" y="-99"/>
    </contour>
    <contour>
      <point x="1000" y="43" type="curve" smooth="yes"/>
      <point x="609" y="43"/>
      <point x="355" y="155"/>
      <point x="355" y="565" type="curve" smooth="yes"/>
      <point x="355" y="1024" type="line" smooth="yes"/>
      <point x="355" y="1445"/>
      <point x="608" y="1552"/>
      <point x="1004" y="1552" type="curve" smooth="yes"/>
      <point x="1360" y="1552"/>
      <point x="1655" y="1461"/>
      <point x="1655" y="1053" type="curve" smooth="yes"/>
      <point x="1655" y="535" type="line" smooth="yes"/>
      <point x="1655" y="143"/>
      <point x="1379" y="43"/>
    </contour>
    <contour>
      <point x="990" y="253" type="curve" smooth="yes"/>
      <point x="1279" y="253"/>
      <point x="1388" y="296"/>
      <point x="1388" y="547" type="curve" smooth="yes"/>
      <point x="1388" y="705" type="line"/>
      <point x="1175" y="705" type="line"/>
      <point x="1174" y="473" type="line" smooth="yes"/>
      <point x="1173" y="399"/>
      <point x="1108" y="394"/>
      <point x="1012" y="394" type="curve" smooth="yes"/>
      <point x="912" y="394"/>
      <point x="841" y="406"/>
      <point x="841" y="467" type="curve" smooth="yes"/>
      <point x="841" y="1151" type="line" smooth="yes"/>
      <point x="841" y="1212"/>
      <point x="905" y="1218"/>
      <point x="1012" y="1218" type="curve" smooth="yes"/>
      <point x="1110" y="1218"/>
      <point x="1173" y="1210"/>
      <point x="1174" y="1133" type="curve" smooth="yes"/>
      <point x="1175" y="911" type="line"/>
      <point x="1388" y="911" type="line"/>
      <point x="1387" y="1065" type="line" smooth="yes"/>
      <point x="1385" y="1335"/>
      <point x="1235" y="1358"/>
      <point x="990" y="1358" type="curve" smooth="yes"/>
      <point x="715" y="1358"/>
      <point x="619" y="1300"/>
      <point x="619" y="1022" type="curve" smooth="yes"/>
      <point x="619" y="610" type="line" smooth="yes"/>
      <point x="619" y="305"/>
      <point x="730" y="253"/>
    </contour>
  </outline>
</glyph>
<glyph name="logicalnot" format="1">
  <advance width="1385"/>
  <unicode hex="00AC"/>
  <outline>
    <contour>
      <point x="995" y="284" type="line"/>
      <point x="1191" y="284" type="line"/>
      <point x="1191" y="976" type="line"/>
      <point x="167" y="976" type="line"/>
      <point x="167" y="731" type="line"/>
      <point x="995" y="731" type="line"/>
    </contour>
  </outline>
</glyph>
<glyph name="uni00AD" format="1">
  <advance width="1201"/>
  <unicode hex="00AD"/>
  <outline>
    <contour>
      <point x="192" y="556" type="line"/>
      <point x="1005" y="556" type="line"/>
      <point x="1005" y="826" type="line"/>
      <point x="192" y="826" type="line"/>
    </contour>
  </outline>
</glyph>
<glyph name="degree" format="1">
  <advance width="1017"/>
  <unicode hex="00B0"/>
  <outline>
    <contour>
      <point x="506" y="1060" type="curve" smooth="yes"/>
      <point x="705" y="1060"/>
      <point x="826" y="1190"/>
      <point x="826" y="1350" type="curve" smooth="yes"/>
      <point x="826" y="1510"/>
      <point x="705" y="1641"/>
      <point x="506" y="1641" type="curve" smooth="yes"/>
      <point x="307" y="1641"/>
      <point x="186" y="1510"/>
      <point x="186" y="1350" type="curve" smooth="yes"/>
      <point x="186" y="1190"/>
      <point x="307" y="1060"/>
    </contour>
    <contour>
      <point x="506" y="1194" type="curve" smooth="yes"/>
      <point x="417" y="1194"/>
      <point x="358" y="1256"/>
      <point x="358" y="1350" type="curve" smooth="yes"/>
      <point x="358" y="1443"/>
      <point x="417" y="1506"/>
      <point x="506" y="1506" type="curve" smooth="yes"/>
      <point x="595" y="1506"/>
      <point x="654" y="1443"/>
      <point x="654" y="1350" type="curve" smooth="yes"/>
      <point x="654" y="1256"/>
      <point x="595" y="1194"/>
    </contour>
  </outline>
</glyph>
<glyph name="plusminus" format="1">
  <advance width="1378"/>
  <unicode hex="00B1"/>
  <outline>
    <contour>
      <point x="249" y="-1" type="line"/>
      <point x="1121" y="-1" type="line"/>
      <point x="1121" y="237" type="line"/>
      <point x="249" y="237" type="line"/>
    </contour>
    <contour>
      <point x="543" y="402" type="line"/>
      <point x="834" y="402" type="line"/>
      <point x="834" y="783" type="line"/>
      <point x="1207" y="783" type="line"/>
      <point x="1207" y="1039" type="line"/>
      <point x="834" y="1039" type="line"/>
      <point x="834" y="1423" type="line"/>
      <point x="543" y="1423" type="line"/>
      <point x="543" y="1039" type="line"/>
      <point x="169" y="1039" type="line"/>
      <point x="169" y="783" type="line"/>
      <point x="543" y="783" type="line"/>
    </contour>
  </outline>
</glyph>
<glyph name="threesuperior" format="1">
  <advance width="1253"/>
  <unicode hex="00B3"/>
  <outline>
    <contour>
      <point x="636" y="477" type="curve" smooth="yes"/>
      <point x="932" y="477"/>
      <point x="1050" y="559"/>
      <point x="1050" y="805" type="curve" smooth="yes"/>
      <point x="1050" y="913"/>
      <point x="1021" y="1004"/>
      <point x="927" y="1035" type="curve"/>
      <point x="1014" y="1067"/>
      <point x="1048" y="1139"/>
      <point x="1048" y="1247" type="curve" smooth="yes"/>
      <point x="1048" y="1494"/>
      <point x="937" y="1571"/>
      <point x="635" y="1571" type="curve" smooth="yes"/>
      <point x="329" y="1571"/>
      <point x="217" y="1488"/>
      <point x="217" y="1225" type="curve" smooth="yes"/>
      <point x="217" y="1183" type="line"/>
      <point x="510" y="1183" type="line"/>
      <point x="510" y="1331" type="line"/>
      <point x="512" y="1402"/>
      <point x="556" y="1411"/>
      <point x="634" y="1411" type="curve" smooth="yes"/>
      <point x="712" y="1411"/>
      <point x="754" y="1397"/>
      <point x="754" y="1341" type="curve" smooth="yes"/>
      <point x="754" y="1325.72"/>
      <point x="754.386" y="1300.72"/>
      <point x="754.386" y="1272.58" type="curve" smooth="yes"/>
      <point x="754.386" y="1199.41"/>
      <point x="751.778" y="1105"/>
      <point x="733" y="1105" type="curve" smooth="yes"/>
      <point x="523" y="1105" type="line"/>
      <point x="523" y="970" type="line"/>
      <point x="733" y="970" type="line" smooth="yes"/>
      <point x="752.593" y="970"/>
      <point x="754.044" y="823.418"/>
      <point x="754.044" y="752.17" type="curve" smooth="yes"/>
      <point x="754.044" y="739.779"/>
      <point x="754" y="729.667"/>
      <point x="754" y="723" type="curve" smooth="yes"/>
      <point x="754" y="665"/>
      <point x="709" y="644"/>
      <point x="639" y="644" type="curve" smooth="yes"/>
      <point x="544" y="644"/>
      <point x="508" y="665"/>
      <point x="510" y="728" type="curve"/>
      <point x="510" y="889" type="line"/>
      <point x="217" y="889" type="line"/>
      <point x="217" y="837" type="line" smooth="yes"/>
      <point x="217" y="587"/>
      <point x="324" y="477"/>
    </contour>
  </outline>
</glyph>
<glyph name="acute" format="1">
  <advance width="1028"/>
  <unicode hex="00B4"/>
  <outline>
    <contour>
      <point x="447" y="1215" type="move" name="_top"/>
    </contour>
    <contour>
      <point x="250.257" y="1427.45" type="curve" smooth="yes"/>
      <point x="250.257" y="1405.48"/>
      <point x="269.76" y="1393.22"/>
      <point x="291.891" y="1393.22" type="curve" smooth="yes"/>
      <point x="298.617" y="1393.22"/>
      <point x="305.767" y="1394.4"/>
      <point x="313" y="1397" type="curve" smooth="yes"/>
      <point x="432" y="1433"/>
      <point x="754" y="1532"/>
      <point x="825" y="1572" type="curve" smooth="yes"/>
      <point x="892" y="1608"/>
      <point x="922" y="1667"/>
      <point x="922" y="1721" type="curve" smooth="yes"/>
      <point x="922" y="1797"/>
      <point x="865" y="1866"/>
      <point x="778" y="1866" type="curve" smooth="yes"/>
      <point x="742" y="1866"/>
      <point x="706" y="1853"/>
      <point x="670" y="1830" type="curve" smooth="yes"/>
      <point x="595" y="1783"/>
      <point x="365" y="1552"/>
      <point x="271" y="1466" type="curve" smooth="yes"/>
      <point x="256.504" y="1452.82"/>
      <point x="250.257" y="1439.21"/>
    </contour>
  </outline>
</glyph>
<glyph name="onehalf" format="1">
  <advance width="2548"/>
  <unicode hex="00BD"/>
  <outline>
    <contour>
      <point x="723" y="0" type="line"/>
      <point x="980" y="0" type="line"/>
      <point x="1526" y="1566" type="line"/>
      <point x="1175" y="1566" type="line"/>
    </contour>
    <contour>
      <point x="239" y="511" type="line"/>
      <point x="545" y="511" type="line"/>
      <point x="545" y="1551" type="line"/>
      <point x="317" y="1551" type="line"/>
      <point x="260" y="1516"/>
      <point x="185" y="1496"/>
      <point x="95" y="1496" type="curve"/>
      <point x="95" y="1360" type="line"/>
      <point x="239" y="1360" type="line"/>
    </contour>
    <contour>
      <point x="1615" y="0" type="line"/>
      <point x="2407" y="0" type="line"/>
      <point x="2407" y="174" type="line"/>
      <point x="1900" y="174" type="line"/>
      <point x="1900" y="267"/>
      <point x="1949" y="323"/>
      <point x="2082" y="371" type="curve" smooth="yes"/>
      <point x="2250" y="437"/>
      <point x="2438" y="500"/>
      <point x="2438" y="742" type="curve" smooth="yes"/>
      <point x="2438" y="1008"/>
      <point x="2288" y="1075"/>
      <point x="2026" y="1075" type="curve" smooth="yes"/>
      <point x="1785.05" y="1075"/>
      <point x="1610.96" y="1015.03"/>
      <point x="1610.96" y="750.799" type="curve" smooth="yes"/>
      <point x="1610.96" y="748.548"/>
      <point x="1610.97" y="746.281"/>
      <point x="1611" y="744" type="curve" smooth="yes"/>
      <point x="1612" y="702" type="line"/>
      <point x="1904" y="710" type="line"/>
      <point x="1904" y="847" type="line" smooth="yes"/>
      <point x="1904" y="880"/>
      <point x="1940" y="906"/>
      <point x="2025" y="906" type="curve" smooth="yes"/>
      <point x="2105" y="905"/>
      <point x="2145" y="888"/>
      <point x="2145" y="855" type="curve" smooth="yes"/>
      <point x="2145" y="736" type="line" smooth="yes"/>
      <point x="2145" y="665"/>
      <point x="2075" y="639"/>
      <point x="1963" y="603" type="curve" smooth="yes"/>
      <point x="1731" y="523"/>
      <point x="1615" y="420"/>
      <point x="1615" y="158" type="curve" smooth="yes"/>
    </contour>
  </outline>
</glyph>
<glyph name="Thorn" format="1">
  <advance width="1529"/>
  <unicode hex="00DE"/>
  <outline>
    <contour>
      <point x="183" y="0" type="line"/>
      <point x="616" y="0" type="line"/>
      <point x="616" y="306" type="line"/>
      <point x="787" y="306" type="line" smooth="yes"/>
      <point x="1085" y="306"/>
      <point x="1397" y="339"/>
      <point x="1397" y="721" type="curve" smooth="yes"/>
      <point x="1397" y="955" type="line" smooth="yes"/>
      <point x="1394" y="1302"/>
      <point x="1197" y="1359"/>
      <point x="799" y="1359" type="curve" smooth="yes"/>
      <point x="616" y="1359" type="line"/>
      <point x="616" y="1553" type="line"/>
      <point x="183" y="1553" type="line"/>
    </contour>
    <contour>
      <point x="616" y="511" type="line"/>
      <point x="616" y="1156" type="line"/>
      <point x="808" y="1156" type="line" smooth="yes"/>
      <point x="948" y="1156"/>
      <point x="965" y="945"/>
      <point x="965" y="832" type="curve" smooth="yes"/>
      <point x="965" y="747"/>
      <point x="964" y="511"/>
      <point x="847" y="511" type="curve" smooth="yes"/>
    </contour>
  </outline>
</glyph>
<glyph name="germandbls" format="1">
  <advance width="1433"/>
  <unicode hex="00DF"/>
  <outline>
    <contour>
      <point x="913.396" y="491.071" type="curve" smooth="yes"/>
      <point x="913.396" y="380.12"/>
      <point x="901.716" y="180"/>
      <point x="824" y="180" type="curve" smooth="yes"/>
      <point x="646" y="181" type="line"/>
      <point x="646" y="-21" type="line"/>
      <point x="798" y="-21" type="line" smooth="yes"/>
      <point x="1059" y="-21"/>
      <point x="1284" y="31"/>
      <point x="1284" y="308" type="curve" smooth="yes"/>
      <point x="1284" y="519" type="line" smooth="yes"/>
      <point x="1284" y="751"/>
      <point x="1157" y="842"/>
      <point x="989" y="852" type="curve"/>
      <point x="1145" y="873"/>
      <point x="1210" y="969"/>
      <point x="1210" y="1175" type="curve" smooth="yes"/>
      <point x="1210" y="1465"/>
      <point x="1068" y="1554"/>
      <point x="716" y="1554" type="curve" smooth="yes"/>
      <point x="388" y="1554"/>
      <point x="170" y="1492"/>
      <point x="170" y="1181" type="curve" smooth="yes"/>
      <point x="170" y="-197" type="line"/>
      <point x="540" y="-190" type="line"/>
      <point x="540" y="1242" type="line" smooth="yes"/>
      <point x="540" y="1344"/>
      <point x="627" y="1349"/>
      <point x="715" y="1349" type="curve" smooth="yes"/>
      <point x="797" y="1349"/>
      <point x="881" y="1335"/>
      <point x="881" y="1266" type="curve" smooth="yes"/>
      <point x="881" y="1206"/>
      <point x="879" y="941"/>
      <point x="841" y="941" type="curve" smooth="yes"/>
      <point x="675" y="941" type="line"/>
      <point x="675" y="745" type="line"/>
      <point x="841" y="744" type="line" smooth="yes"/>
      <point x="903.786" y="744"/>
      <point x="913.396" y="593.072"/>
    </contour>
  </outline>
</glyph>
<glyph name="thorn" format="1">
  <advance width="1433"/>
  <unicode hex="00FE"/>
  <outline>
    <contour>
      <point x="742" y="177" type="curve" smooth="yes"/>
      <point x="648" y="177"/>
      <point x="582" y="177"/>
      <point x="582" y="266" type="curve" smooth="yes"/>
      <point x="582" y="977" type="line" smooth="yes"/>
      <point x="582" y="1054"/>
      <point x="634" y="1062"/>
      <point x="750" y="1062" type="curve" smooth="yes"/>
      <point x="838" y="1062"/>
      <point x="895" y="1060"/>
      <point x="895" y="965" type="curve" smooth="yes"/>
      <point x="895" y="281" type="line" smooth="yes"/>
      <point x="895" y="196"/>
      <point x="838" y="177"/>
    </contour>
    <contour>
      <point x="168" y="-406" type="line"/>
      <point x="582" y="-399" type="line"/>
      <point x="582" y="89" type="line"/>
      <point x="627" y="16"/>
      <point x="734" y="-24"/>
      <point x="894" y="-24" type="curve" smooth="yes"/>
      <point x="1190" y="-24"/>
      <point x="1279" y="117"/>
      <point x="1279" y="447" type="curve" smooth="yes"/>
      <point x="1279" y="758" type="line" smooth="yes"/>
      <point x="1279" y="1018"/>
      <point x="1209" y="1258"/>
      <point x="886" y="1258" type="curve" smooth="yes"/>
      <point x="727" y="1258"/>
      <point x="618" y="1230"/>
      <point x="581" y="1149" type="curve"/>
      <point x="581" y="1592" type="line"/>
      <point x="168" y="1586" type="line"/>
    </contour>
  </outline>
</glyph>
<glyph name="Hbar" format="1">
  <advance width="1686"/>
  <unicode hex="0126"/>
  <outline>
    <contour>
      <point x="644" y="898" type="line"/>
      <point x="644" y="1127" type="line"/>
      <point x="1036" y="1127" type="line"/>
      <point x="1036" y="898" type="line"/>
    </contour>
    <contour>
      <point x="209" y="0" type="line"/>
      <point x="644" y="0" type="line"/>
      <point x="644" y="686" type="line"/>
      <point x="1036" y="686" type="line"/>
      <point x="1036" y="0" type="line"/>
      <point x="1472" y="0" type="line"/>
      <point x="1472" y="1127" type="line"/>
      <point x="1566" y="1127" type="line"/>
      <point x="1566" y="1282" type="line"/>
      <point x="1472" y="1282" type="line"/>
      <point x="1472" y="1551" type="line"/>
      <point x="1036" y="1551" type="line"/>
      <point x="1036" y="1282" type="line"/>
      <point x="644" y="1282" type="line"/>
      <point x="644" y="1551" type="line"/>
      <point x="209" y="1551" type="line"/>
      <point x="209" y="1282" type="line"/>
      <point x="120" y="1282" type="line"/>
      <point x="120" y="1127" type="line"/>
      <point x="209" y="1127" type="line"/>
    </contour>
  </outline>
</glyph>
<glyph name="lslash" format="1">
  <advance width="824"/>
  <unicode hex="0142"/>
  <outline>
    <component base="l" xOffset="13"/>
    <contour>
      <point x="61" y="705" type="line"/>
      <point x="786" y="978" type="line"/>
      <point x="786" y="1237" type="line"/>
      <point x="61" y="965" type="line"/>
    </contour>
  </outline>
</glyph>
<glyph name="Eng" format="1">
  <advance width="1616"/>
  <unicode hex="014A"/>
  <outline>
    <contour>
      <point x="801" y="-531" type="line"/>
      <point x="1272" y="-531"/>
      <point x="1440" y="-409"/>
      <point x="1440" y="-37" type="curve" smooth="yes"/>
      <point x="1440" y="1551" type="line"/>
      <point x="1108" y="1551" type="line"/>
      <point x="1108" y="634" type="line"/>
      <point x="557" y="1551" type="line"/>
      <point x="171" y="1551" type="line"/>
      <point x="171" y="0" type="line"/>
      <point x="506" y="0" type="line"/>
      <point x="506" y="907" type="line"/>
      <point x="1070" y="20" type="line"/>
      <point x="1071" y="-199" type="line" smooth="yes"/>
      <point x="1045" y="-256"/>
      <point x="988" y="-288"/>
      <point x="805" y="-288" type="curve"/>
    </contour>
  </outline>
</glyph>
<glyph name="florin" format="1">
  <advance width="987"/>
  <unicode hex="0192"/>
  <outline>
    <contour>
      <point x="347" y="-319" type="curve" smooth="yes"/>
      <point x="533" y="-315"/>
      <point x="560" y="-222"/>
      <point x="560" y="-56" type="curve" smooth="yes"/>
      <point x="560" y="757" type="line"/>
      <point x="758" y="757" type="line"/>
      <point x="758" y="887" type="line"/>
      <point x="560" y="887" type="line"/>
      <point x="559" y="1256" type="line" smooth="yes"/>
      <point x="559" y="1372"/>
      <point x="559" y="1392"/>
      <point x="690" y="1392" type="curve" smooth="yes"/>
      <point x="716" y="1392"/>
      <point x="742" y="1391"/>
      <point x="768" y="1389" type="curve"/>
      <point x="768" y="1543" type="line"/>
      <point x="705" y="1555"/>
      <point x="645" y="1561"/>
      <point x="592" y="1561" type="curve" smooth="yes"/>
      <point x="430" y="1561"/>
      <point x="361" y="1484"/>
      <point x="362" y="1259" type="curve" smooth="yes"/>
      <point x="363" y="887" type="line"/>
      <point x="201" y="887" type="line"/>
      <point x="201" y="757" type="line"/>
      <point x="363" y="757" type="line"/>
      <point x="363" y="-167" type="line"/>
      <point x="195" y="-167" type="line"/>
      <point x="195" y="-299" type="line"/>
      <point x="285" y="-315"/>
      <point x="319" y="-319"/>
    </contour>
  </outline>
</glyph>
<glyph name="uni02C9" format="1">
  <advance width="1044"/>
  <unicode hex="02C9"/>
  <outline>
    <contour>
      <point x="593" y="1215" type="move" name="_top"/>
    </contour>
    <contour>
      <point x="228" y="1616" type="line"/>
      <point x="228" y="1429" type="line"/>
      <point x="962" y="1429" type="line"/>
      <point x="962" y="1616" type="line"/>
    </contour>
  </outline>
</glyph>
<glyph name="hungarumlaut" format="1">
  <advance width="1504"/>
  <unicode hex="02DD"/>
  <outline>
    <contour>
      <point x="672" y="1215" type="move" name="_top"/>
    </contour>
    <contour>
      <point x="839.415" y="1385.12" type="curve" smooth="yes"/>
      <point x="839.415" y="1362.11"/>
      <point x="860.519" y="1352.17"/>
      <point x="884.026" y="1352.17" type="curve" smooth="yes"/>
      <point x="889.847" y="1352.17"/>
      <point x="895.661" y="1353.03"/>
      <point x="901" y="1355" type="curve" smooth="yes"/>
      <point x="1021" y="1391"/>
      <point x="1342" y="1491"/>
      <point x="1413" y="1531" type="curve" smooth="yes"/>
      <point x="1480" y="1567"/>
      <point x="1510" y="1626"/>
      <point x="1510" y="1680" type="curve" smooth="yes"/>
      <point x="1510" y="1756"/>
      <point x="1453" y="1825"/>
      <point x="1366" y="1825" type="curve" smooth="yes"/>
      <point x="1330" y="1825"/>
      <point x="1294" y="1812"/>
      <point x="1258" y="1789" type="curve" smooth="yes"/>
      <point x="1183" y="1742"/>
      <point x="953" y="1511"/>
      <point x="859" y="1425" type="curve" smooth="yes"/>
      <point x="845.311" y="1412.5"/>
      <point x="839.415" y="1397.52"/>
    </contour>
    <contour>
      <point x="254.136" y="1385.68" type="curve" smooth="yes"/>
      <point x="254.136" y="1362.37"/>
      <point x="274.292" y="1352.19"/>
      <point x="298.455" y="1352.19" type="curve" smooth="yes"/>
      <point x="304.438" y="1352.19"/>
      <point x="310.45" y="1353.06"/>
      <point x="316" y="1355" type="curve" smooth="yes"/>
      <point x="435" y="1391"/>
      <point x="756" y="1491"/>
      <point x="827" y="1531" type="curve" smooth="yes"/>
      <point x="895" y="1567"/>
      <point x="924" y="1626"/>
      <point x="924" y="1680" type="curve" smooth="yes"/>
      <point x="924" y="1756"/>
      <point x="868" y="1825"/>
      <point x="780" y="1825" type="curve" smooth="yes"/>
      <point x="745" y="1825"/>
      <point x="709" y="1812"/>
      <point x="672" y="1789" type="curve" smooth="yes"/>
      <point x="598" y="1742"/>
      <point x="368" y="1511"/>
      <point x="273" y="1425" type="curve" smooth="yes"/>
      <point x="259.772" y="1412.97"/>
      <point x="254.136" y="1398.06"/>
    </contour>
  </outline>
</glyph>
<glyph name="uni0307" format="1">
  <advance width="742"/>
  <unicode hex="0307"/>
  <outline>
    <contour>
      <point x="367" y="1215" type="move" name="_top"/>
    </contour>
    <contour>
      <point x="371" y="1279" type="curve" smooth="yes"/>
      <point x="467" y="1279"/>
      <point x="548" y="1347"/>
      <point x="548" y="1465" type="curve" smooth="yes"/>
      <point x="548" y="1583"/>
      <point x="464" y="1652"/>
      <point x="371" y="1652" type="curve" smooth="yes"/>
      <point x="275" y="1652"/>
      <point x="194" y="1584"/>
      <point x="194" y="1465" type="curve" smooth="yes"/>
      <point x="194" y="1348"/>
      <point x="278" y="1279"/>
    </contour>
  </outline>
</glyph>
<glyph name="commaaccent" format="1">
  <advance width="798"/>
  <unicode hex="0326"/>
  <outline>
    <contour>
      <point x="441" y="0" type="move" name="_bot"/>
    </contour>
    <contour>
      <point x="275" y="-717" type="line"/>
      <point x="482" y="-717"/>
      <point x="634" y="-554"/>
      <point x="634" y="-356" type="curve" smooth="yes"/>
      <point x="634" y="-226"/>
      <point x="570" y="-143"/>
      <point x="442" y="-143" type="curve" smooth="yes"/>
      <point x="343" y="-143"/>
      <point x="256" y="-200"/>
      <point x="256" y="-313" type="curve" smooth="yes"/>
      <point x="256" y="-425"/>
      <point x="326" y="-480"/>
      <point x="420" y="-488" type="curve"/>
      <point x="416" y="-571"/>
      <point x="354" y="-626"/>
      <point x="275" y="-628" type="curve"/>
    </contour>
  </outline>
</glyph>
<glyph name="mu" format="1">
  <advance width="1449"/>
  <unicode hex="03BC"/>
  <outline>
    <contour>
      <point x="869" y="1215" type="line"/>
      <point x="869" y="296" type="line" smooth="yes"/>
      <point x="869" y="234"/>
      <point x="833" y="186"/>
      <point x="718" y="186" type="curve" smooth="yes"/>
      <point x="637" y="186"/>
      <point x="576" y="199"/>
      <point x="573" y="256" type="curve"/>
      <point x="573" y="1215" type="line"/>
      <point x="159" y="1215" type="line"/>
      <point x="159" y="-288" type="line"/>
      <point x="573" y="-288" type="line"/>
      <point x="573" y="-5" type="line"/>
      <point x="576.422" y="-5.0671"/>
      <point x="579.91" y="-5.10156"/>
      <point x="583.456" y="-5.10156" type="curve" smooth="yes"/>
      <point x="685.606" y="-5.10156"/>
      <point x="836.476" y="23.4893"/>
      <point x="879" y="124" type="curve"/>
      <point x="908" y="0" type="line"/>
      <point x="1284" y="0" type="line"/>
      <point x="1284" y="1215" type="line"/>
    </contour>
  </outline>
</glyph>
<glyph name="emdash" format="1">
  <advance width="1860"/>
  <unicode hex="2014"/>
  <outline>
    <contour>
      <point x="116" y="511" type="line"/>
      <point x="1735" y="511" type="line"/>
      <point x="1735" y="843" type="line"/>
      <point x="116" y="843" type="line"/>
    </contour>
  </outline>
</glyph>
<glyph name="quotesinglbase" format="1">
  <advance width="747"/>
  <unicode hex="201A"/>
  <outline>
    <contour>
      <point x="409" y="-319" type="curve" smooth="yes"/>
      <point x="435" y="-209"/>
      <point x="519" y="97"/>
      <point x="519" y="195" type="curve" smooth="yes"/>
      <point x="519" y="296"/>
      <point x="450" y="349"/>
      <point x="370" y="349" type="curve" smooth="yes"/>
      <point x="285" y="349"/>
      <point x="226" y="299"/>
      <point x="226" y="190" type="curve" smooth="yes"/>
      <point x="226" y="95"/>
      <point x="308" y="-204"/>
      <point x="334" y="-316" type="curve" smooth="yes"/>
      <point x="341" y="-340"/>
      <point x="359" y="-352"/>
      <point x="372" y="-352" type="curve" smooth="yes"/>
      <point x="384" y="-352"/>
      <point x="403" y="-342"/>
    </contour>
  </outline>
</glyph>
<glyph name="guilsinglleft" format="1">
  <advance width="1048"/>
  <unicode hex="2039"/>
  <outline>
    <contour>
      <point x="814" y="216" type="curve" smooth="yes"/>
      <point x="856" y="216"/>
      <point x="888" y="253"/>
      <point x="888" y="295" type="curve" smooth="yes"/>
      <point x="888" y="316"/>
      <point x="882" y="338"/>
      <point x="865" y="358" type="curve" smooth="yes"/>
      <point x="497" y="779" type="line"/>
      <point x="865" y="1200" type="line" smooth="yes"/>
      <point x="883" y="1222"/>
      <point x="889" y="1245"/>
      <point x="889" y="1263" type="curve" smooth="yes"/>
      <point x="889" y="1306.77"/>
      <point x="859.669" y="1341.08"/>
      <point x="818.494" y="1341.08" type="curve" smooth="yes"/>
      <point x="817.339" y="1341.08"/>
      <point x="816.174" y="1341.05"/>
      <point x="815" y="1341" type="curve" smooth="yes"/>
      <point x="813.111" y="1341.22"/>
      <point x="811.173" y="1341.33"/>
      <point x="809.189" y="1341.33" type="curve" smooth="yes"/>
      <point x="793.321" y="1341.33"/>
      <point x="774.556" y="1334.22"/>
      <point x="755" y="1320" type="curve" smooth="yes"/>
      <point x="239" y="935" type="line" smooth="yes"/>
      <point x="185" y="895"/>
      <point x="157" y="838"/>
      <point x="157" y="778" type="curve" smooth="yes"/>
      <point x="157" y="721"/>
      <point x="183" y="663"/>
      <point x="239" y="622" type="curve" smooth="yes"/>
      <point x="755" y="238" type="line" smooth="yes"/>
      <point x="776" y="222"/>
      <point x="796" y="216"/>
    </contour>
  </outline>
</glyph>
<glyph name="fraction" format="1">
  <advance width="1134"/>
  <unicode hex="2044"/>
  <outline>
    <contour>
      <point x="175" y="0" type="line"/>
      <point x="439" y="0" type="line"/>
      <point x="962" y="1551" type="line"/>
      <point x="650" y="1551" type="line"/>
    </contour>
  </outline>
</glyph>
<glyph name="Euro" format="1">
  <advance width="1357"/>
  <unicode hex="20AC"/>
  <outline>
    <contour>
      <point x="827" y="-33" type="curve" smooth="yes"/>
      <point x="1141" y="-33"/>
      <point x="1411" y="17"/>
      <point x="1425" y="353" type="curve" smooth="yes"/>
      <point x="1427" y="366"/>
      <point x="1428" y="459"/>
      <point x="1429" y="475" type="curve"/>
      <point x="1006" y="486" type="line"/>
      <point x="1002" y="432"/>
      <point x="1002" y="241"/>
      <point x="985" y="220" type="curve" smooth="yes"/>
      <point x="968" y="198"/>
      <point x="884" y="190"/>
      <point x="811" y="190" type="curve" smooth="yes"/>
      <point x="686" y="190"/>
      <point x="603" y="212"/>
      <point x="600" y="257" type="curve" smooth="yes"/>
      <point x="597" y="292"/>
      <point x="596" y="545"/>
      <point x="596" y="582" type="curve"/>
      <point x="957" y="582" type="line"/>
      <point x="977" y="712" type="line"/>
      <point x="596" y="712" type="line"/>
      <point x="596" y="833" type="line"/>
      <point x="957" y="833" type="line"/>
      <point x="977" y="963" type="line"/>
      <point x="596" y="963" type="line"/>
      <point x="597" y="1002"/>
      <point x="598" y="1254"/>
      <point x="600" y="1292" type="curve" smooth="yes"/>
      <point x="603" y="1352"/>
      <point x="706" y="1358"/>
      <point x="812" y="1358" type="curve" smooth="yes"/>
      <point x="870" y="1358"/>
      <point x="953" y="1357"/>
      <point x="972" y="1340" type="curve" smooth="yes"/>
      <point x="992" y="1324"/>
      <point x="999" y="1130"/>
      <point x="1005" y="1064" type="curve"/>
      <point x="1429" y="1079" type="line"/>
      <point x="1428" y="1090"/>
      <point x="1427" y="1186"/>
      <point x="1425" y="1196" type="curve" smooth="yes"/>
      <point x="1409" y="1542"/>
      <point x="1134" y="1584"/>
      <point x="818" y="1584" type="curve" smooth="yes"/>
      <point x="452" y="1584"/>
      <point x="175" y="1531"/>
      <point x="163" y="1160" type="curve" smooth="yes"/>
      <point x="162" y="1142"/>
      <point x="161" y="984"/>
      <point x="161" y="963" type="curve"/>
      <point x="22" y="963" type="line"/>
      <point x="2" y="833" type="line"/>
      <point x="160" y="833" type="line"/>
      <point x="160" y="712" type="line"/>
      <point x="22" y="712" type="line"/>
      <point x="2" y="582" type="line"/>
      <point x="161" y="582" type="line"/>
      <point x="161" y="565"/>
      <point x="162" y="412"/>
      <point x="163" y="397" type="curve" smooth="yes"/>
      <point x="176" y="33"/>
      <point x="470" y="-33"/>
    </contour>
  </outline>
</glyph>
<glyph name="product" format="1">
  <advance width="1599"/>
  <unicode hex="220F"/>
  <outline>
    <contour>
      <point x="609" y="1308" type="line"/>
      <point x="990" y="1308" type="line"/>
      <point x="990" y="-81" type="line"/>
      <point x="1437" y="-81" type="line"/>
      <point x="1437" y="1551" type="line"/>
      <point x="162" y="1551" type="line"/>
      <point x="162" y="-81" type="line"/>
      <point x="609" y="-81" type="line"/>
    </contour>
  </outline>
</glyph>
<glyph name="radical" format="1">
  <advance width="1409"/>
  <unicode hex="221A"/>
  <outline>
    <contour>
      <point x="523" y="0" type="line"/>
      <point x="672" y="0" type="line"/>
      <point x="1305" y="1464" type="line"/>
      <point x="1075" y="1464" type="line"/>
      <point x="579" y="251" type="line"/>
      <point x="362" y="658" type="line"/>
      <point x="137" y="658" type="line"/>
    </contour>
  </outline>
</glyph>
<glyph name="infinity" format="1">
  <advance width="1728"/>
  <unicode hex="221E"/>
  <outline>
    <contour>
      <point x="1229" y="509" type="curve" smooth="yes"/>
      <point x="1099" y="509"/>
      <point x="972" y="632"/>
      <point x="917" y="809" type="curve"/>
      <point x="977" y="889"/>
      <point x="1092" y="942"/>
      <point x="1203" y="942" type="curve" smooth="yes"/>
      <point x="1290" y="942"/>
      <point x="1434" y="894"/>
      <point x="1434" y="719" type="curve" smooth="yes"/>
      <point x="1434" y="612"/>
      <point x="1366" y="509"/>
    </contour>
    <contour>
      <point x="497" y="516" type="curve" smooth="yes"/>
      <point x="356" y="516"/>
      <point x="286" y="622"/>
      <point x="286" y="729" type="curve" smooth="yes"/>
      <point x="286" y="834"/>
      <point x="355" y="939"/>
      <point x="493" y="939" type="curve" smooth="yes"/>
      <point x="597" y="939"/>
      <point x="707" y="836"/>
      <point x="759" y="689" type="curve"/>
      <point x="703" y="587"/>
      <point x="595" y="516"/>
    </contour>
    <contour>
      <point x="1619" y="738" type="curve" smooth="yes"/>
      <point x="1619" y="952.273"/>
      <point x="1495.13" y="1170.07"/>
      <point x="1241.81" y="1170.07" type="curve" smooth="yes"/>
      <point x="1097.71" y="1170.07"/>
      <point x="939.51" y="1081.85"/>
      <point x="850" y="953" type="curve"/>
      <point x="788" y="1074"/>
      <point x="643" y="1159"/>
      <point x="497" y="1159" type="curve" smooth="yes"/>
      <point x="233" y="1159"/>
      <point x="101" y="945"/>
      <point x="101" y="732" type="curve" smooth="yes"/>
      <point x="101" y="516"/>
      <point x="234" y="300"/>
      <point x="499" y="300" type="curve" smooth="yes"/>
      <point x="641" y="300"/>
      <point x="776" y="395"/>
      <point x="823" y="533" type="curve"/>
      <point x="898" y="393"/>
      <point x="1065" y="296"/>
      <point x="1233" y="296" type="curve" smooth="yes"/>
      <point x="1233.57" y="295.998"/>
      <point x="1234.15" y="295.997"/>
      <point x="1234.72" y="295.997" type="curve" smooth="yes"/>
      <point x="1490.58" y="295.997"/>
      <point x="1619" y="518.492"/>
    </contour>
  </outline>
</glyph>
<glyph name="lessequal" format="1">
  <advance width="1230"/>
  <unicode hex="2264"/>
  <outline>
    <contour>
      <point x="155" y="0" type="line"/>
      <point x="1071" y="0" type="line"/>
      <point x="1071" y="253" type="line"/>
      <point x="155" y="253" type="line"/>
    </contour>
    <contour>
      <point x="1066" y="344" type="line"/>
      <point x="1066" y="661" type="line"/>
      <point x="425" y="807" type="line"/>
      <point x="1066" y="942" type="line"/>
      <point x="1066" y="1278" type="line"/>
      <point x="160" y="966" type="line"/>
      <point x="160" y="643" type="line"/>
    </contour>
  </outline>
</glyph>
<glyph name="caron.alt" format="1">
  <advance width="954"/>
  <outline>
    <contour>
      <point x="234" y="1215" type="move" name="_caron.alt"/>
    </contour>
    <contour>
      <point x="477" y="1788" type="curve" smooth="yes"/>
      <point x="477" y="1667"/>
      <point x="547" y="1603"/>
      <point x="641" y="1595" type="curve"/>
      <point x="637" y="1512"/>
      <point x="575" y="1457"/>
      <point x="496" y="1455" type="curve"/>
      <point x="496" y="1367" type="line"/>
      <point x="679" y="1367"/>
      <point x="842" y="1546"/>
      <point x="842" y="1744" type="curve" smooth="yes"/>
      <point x="842" y="1872"/>
      <point x="771" y="1959"/>
      <point x="656" y="1959" type="curve" smooth="yes"/>
      <point x="566" y="1959"/>
      <point x="477" y="1899"/>
    </contour>
  </outline>
</glyph>
